<svg xmlns="http://www.w3.org/2000/svg" xmlns:xlink="http://www.w3.org/1999/xlink" width="180" zoomAndPan="magnify" viewBox="0 0 135 30.000001" height="40" preserveAspectRatio="xMidYMid meet" version="1.0"><defs><g></g></defs><g fill="#242424" fill-opacity="1"><g transform="translate(22.399638, 22.706647)"><g><path d="M 9.609375 0 L 7.171875 0 L 0.109375 -17.3125 L 2.578125 -17.3125 L 7.375 -5.125 L 8.40625 -2.0625 L 9.4375 -5.125 L 14.203125 -17.3125 L 16.671875 -17.3125 Z M 9.609375 0 "></path></g></g></g><g fill="#242424" fill-opacity="1"><g transform="translate(40.233754, 22.706647)"><g><path d="M 18.359375 -8.734375 C 18.359375 -6.921875 18.007812 -5.332031 17.3125 -3.96875 C 16.625 -2.613281 15.632812 -1.570312 14.34375 -0.84375 C 13.050781 -0.113281 11.523438 0.25 9.765625 0.25 C 7.984375 0.25 6.445312 -0.109375 5.15625 -0.828125 C 3.875 -1.554688 2.890625 -2.597656 2.203125 -3.953125 C 1.523438 -5.316406 1.1875 -6.910156 1.1875 -8.734375 C 1.1875 -11.503906 1.941406 -13.664062 3.453125 -15.21875 C 4.972656 -16.78125 7.085938 -17.5625 9.796875 -17.5625 C 11.554688 -17.5625 13.082031 -17.210938 14.375 -16.515625 C 15.664062 -15.816406 16.648438 -14.796875 17.328125 -13.453125 C 18.015625 -12.117188 18.359375 -10.546875 18.359375 -8.734375 Z M 15.96875 -8.734375 C 15.96875 -10.890625 15.425781 -12.582031 14.34375 -13.8125 C 13.269531 -15.039062 11.753906 -15.65625 9.796875 -15.65625 C 7.804688 -15.65625 6.269531 -15.046875 5.1875 -13.828125 C 4.113281 -12.617188 3.578125 -10.921875 3.578125 -8.734375 C 3.578125 -6.566406 4.125 -4.84375 5.21875 -3.5625 C 6.3125 -2.289062 7.828125 -1.65625 9.765625 -1.65625 C 11.765625 -1.65625 13.296875 -2.269531 14.359375 -3.5 C 15.429688 -4.738281 15.96875 -6.484375 15.96875 -8.734375 Z M 15.96875 -8.734375 "></path></g></g></g><g fill="#242424" fill-opacity="1"><g transform="translate(23.08926, 6.529241)"><g><path d="M -9.609375 0 L -7.171875 0 L -0.109375 17.3125 L -2.578125 17.3125 L -7.375 5.125 L -8.40625 2.0625 L -9.4375 5.125 L -14.203125 17.3125 L -16.671875 17.3125 Z M -9.609375 0 "></path></g></g></g><g fill="#242424" fill-opacity="1"><g transform="translate(68.605973, 8.05844)"><g><path d="M 1.6875 -4.359375 L 2.328125 -4.359375 L 3.734375 -0.34375 L 4.09375 -0.28125 L 4.09375 0 L 2.5625 0 L 2.5625 -0.28125 L 3.046875 -0.34375 L 2.765625 -1.203125 L 1.078125 -1.203125 L 0.796875 -0.34375 L 1.296875 -0.28125 L 1.296875 0 L -0.078125 0 L -0.078125 -0.28125 L 0.28125 -0.34375 Z M 2.046875 -3.421875 L 1.90625 -3.9375 L 1.765625 -3.40625 L 1.1875 -1.546875 L 2.65625 -1.546875 Z M 2.046875 -3.421875 "></path></g></g></g><g fill="#242424" fill-opacity="1"><g transform="translate(74.365987, 8.05844)"><g><path d="M 1.6875 0.0625 C 1.488281 0.0625 1.304688 0.0390625 1.140625 0 C 0.984375 -0.03125 0.8125 -0.0703125 0.625 -0.125 C 0.507812 -0.164062 0.421875 -0.191406 0.359375 -0.203125 L 0.40625 -1.25 L 0.78125 -1.25 L 0.875 -0.5 C 0.9375 -0.4375 1.039062 -0.378906 1.1875 -0.328125 C 1.34375 -0.273438 1.507812 -0.25 1.6875 -0.25 C 1.988281 -0.25 2.210938 -0.316406 2.359375 -0.453125 C 2.515625 -0.585938 2.59375 -0.769531 2.59375 -1 C 2.59375 -1.144531 2.550781 -1.269531 2.46875 -1.375 C 2.382812 -1.488281 2.273438 -1.582031 2.140625 -1.65625 C 2.003906 -1.738281 1.8125 -1.832031 1.5625 -1.9375 C 1.351562 -2.039062 1.164062 -2.140625 1 -2.234375 C 0.84375 -2.335938 0.703125 -2.472656 0.578125 -2.640625 C 0.460938 -2.804688 0.40625 -3.007812 0.40625 -3.25 C 0.40625 -3.457031 0.460938 -3.644531 0.578125 -3.8125 C 0.691406 -3.988281 0.851562 -4.125 1.0625 -4.21875 C 1.28125 -4.3125 1.535156 -4.359375 1.828125 -4.359375 C 2.003906 -4.359375 2.160156 -4.34375 2.296875 -4.3125 C 2.429688 -4.289062 2.585938 -4.257812 2.765625 -4.21875 C 2.847656 -4.1875 2.914062 -4.164062 2.96875 -4.15625 L 2.921875 -3.1875 L 2.578125 -3.1875 L 2.453125 -3.90625 C 2.421875 -3.9375 2.34375 -3.96875 2.21875 -4 C 2.09375 -4.039062 1.957031 -4.0625 1.8125 -4.0625 C 1.550781 -4.0625 1.347656 -4.003906 1.203125 -3.890625 C 1.066406 -3.773438 1 -3.613281 1 -3.40625 C 1 -3.25 1.039062 -3.117188 1.125 -3.015625 C 1.207031 -2.910156 1.3125 -2.820312 1.4375 -2.75 C 1.5625 -2.675781 1.757812 -2.578125 2.03125 -2.453125 C 2.28125 -2.328125 2.484375 -2.210938 2.640625 -2.109375 C 2.804688 -2.015625 2.945312 -1.890625 3.0625 -1.734375 C 3.175781 -1.578125 3.234375 -1.394531 3.234375 -1.1875 C 3.234375 -0.976562 3.175781 -0.773438 3.0625 -0.578125 C 2.945312 -0.390625 2.769531 -0.234375 2.53125 -0.109375 C 2.300781 0.00390625 2.019531 0.0625 1.6875 0.0625 Z M 1.6875 0.0625 "></path></g></g></g><g fill="#242424" fill-opacity="1"><g transform="translate(79.556965, 8.05844)"><g><path d="M 0.859375 -3.953125 L 0.3125 -4.03125 L 0.3125 -4.3125 L 2.015625 -4.3125 L 2.015625 -4.03125 L 1.484375 -3.953125 L 1.484375 -0.34375 L 2.015625 -0.28125 L 2.015625 0 L 0.3125 0 L 0.3125 -0.28125 L 0.859375 -0.34375 Z M 0.859375 -3.953125 "></path></g></g></g><g fill="#242424" fill-opacity="1"><g transform="translate(83.638904, 8.05844)"><g><path d="M 1.6875 0.0625 C 1.488281 0.0625 1.304688 0.0390625 1.140625 0 C 0.984375 -0.03125 0.8125 -0.0703125 0.625 -0.125 C 0.507812 -0.164062 0.421875 -0.191406 0.359375 -0.203125 L 0.40625 -1.25 L 0.78125 -1.25 L 0.875 -0.5 C 0.9375 -0.4375 1.039062 -0.378906 1.1875 -0.328125 C 1.34375 -0.273438 1.507812 -0.25 1.6875 -0.25 C 1.988281 -0.25 2.210938 -0.316406 2.359375 -0.453125 C 2.515625 -0.585938 2.59375 -0.769531 2.59375 -1 C 2.59375 -1.144531 2.550781 -1.269531 2.46875 -1.375 C 2.382812 -1.488281 2.273438 -1.582031 2.140625 -1.65625 C 2.003906 -1.738281 1.8125 -1.832031 1.5625 -1.9375 C 1.351562 -2.039062 1.164062 -2.140625 1 -2.234375 C 0.84375 -2.335938 0.703125 -2.472656 0.578125 -2.640625 C 0.460938 -2.804688 0.40625 -3.007812 0.40625 -3.25 C 0.40625 -3.457031 0.460938 -3.644531 0.578125 -3.8125 C 0.691406 -3.988281 0.851562 -4.125 1.0625 -4.21875 C 1.28125 -4.3125 1.535156 -4.359375 1.828125 -4.359375 C 2.003906 -4.359375 2.160156 -4.34375 2.296875 -4.3125 C 2.429688 -4.289062 2.585938 -4.257812 2.765625 -4.21875 C 2.847656 -4.1875 2.914062 -4.164062 2.96875 -4.15625 L 2.921875 -3.1875 L 2.578125 -3.1875 L 2.453125 -3.90625 C 2.421875 -3.9375 2.34375 -3.96875 2.21875 -4 C 2.09375 -4.039062 1.957031 -4.0625 1.8125 -4.0625 C 1.550781 -4.0625 1.347656 -4.003906 1.203125 -3.890625 C 1.066406 -3.773438 1 -3.613281 1 -3.40625 C 1 -3.25 1.039062 -3.117188 1.125 -3.015625 C 1.207031 -2.910156 1.3125 -2.820312 1.4375 -2.75 C 1.5625 -2.675781 1.757812 -2.578125 2.03125 -2.453125 C 2.28125 -2.328125 2.484375 -2.210938 2.640625 -2.109375 C 2.804688 -2.015625 2.945312 -1.890625 3.0625 -1.734375 C 3.175781 -1.578125 3.234375 -1.394531 3.234375 -1.1875 C 3.234375 -0.976562 3.175781 -0.773438 3.0625 -0.578125 C 2.945312 -0.390625 2.769531 -0.234375 2.53125 -0.109375 C 2.300781 0.00390625 2.019531 0.0625 1.6875 0.0625 Z M 1.6875 0.0625 "></path></g></g></g><g fill="#242424" fill-opacity="1"><g transform="translate(88.829882, 8.05844)"><g><path d="M 1.6875 -4.015625 L 0.6875 -3.96875 L 0.484375 -2.765625 L 0.09375 -2.765625 L 0.203125 -4.3125 L 3.8125 -4.3125 L 3.890625 -2.765625 L 3.515625 -2.765625 L 3.328125 -3.96875 L 2.328125 -4.015625 L 2.328125 -0.34375 L 3.15625 -0.28125 L 3.15625 0 L 0.9375 0 L 0.9375 -0.28125 L 1.6875 -0.34375 Z M 1.6875 -4.015625 "></path></g></g></g><g fill="#242424" fill-opacity="1"><g transform="translate(94.589895, 8.05844)"><g><path d="M 0.75 -3.953125 L 0.265625 -4.03125 L 0.265625 -4.3125 L 3.234375 -4.3125 L 3.3125 -3.421875 L 2.984375 -3.421875 L 2.8125 -3.984375 L 1.375 -4.015625 L 1.375 -2.375 L 2.34375 -2.390625 L 2.421875 -2.875 L 2.75 -2.875 L 2.75 -1.546875 L 2.421875 -1.546875 L 2.34375 -2.046875 L 1.375 -2.0625 L 1.375 -0.328125 L 3.015625 -0.390625 L 3.3125 -1.109375 L 3.65625 -1.015625 L 3.5 0 L 0.265625 0 L 0.265625 -0.28125 L 0.75 -0.34375 Z M 0.75 -3.953125 "></path></g></g></g><g fill="#242424" fill-opacity="1"><g transform="translate(100.111842, 8.05844)"><g><path d="M 0.75 -3.953125 L 0.296875 -4.03125 L 0.296875 -4.3125 L 1.375 -4.3125 L 3.3125 -1.484375 L 3.625 -0.859375 L 3.625 -3.953125 L 3.125 -4.03125 L 3.125 -4.3125 L 4.5 -4.3125 L 4.5 -4.03125 L 4.03125 -3.953125 L 4.03125 0 L 3.578125 0 L 1.59375 -2.90625 L 1.15625 -3.671875 L 1.15625 -0.34375 L 1.703125 -0.28125 L 1.703125 0 L 0.296875 0 L 0.296875 -0.28125 L 0.75 -0.34375 Z M 0.75 -3.953125 "></path></g></g></g><g fill="#242424" fill-opacity="1"><g transform="translate(106.493149, 8.05844)"><g><path d="M 1.6875 -4.015625 L 0.6875 -3.96875 L 0.484375 -2.765625 L 0.09375 -2.765625 L 0.203125 -4.3125 L 3.8125 -4.3125 L 3.890625 -2.765625 L 3.515625 -2.765625 L 3.328125 -3.96875 L 2.328125 -4.015625 L 2.328125 -0.34375 L 3.15625 -0.28125 L 3.15625 0 L 0.9375 0 L 0.9375 -0.28125 L 1.6875 -0.34375 Z M 1.6875 -4.015625 "></path></g></g></g><g fill="#242424" fill-opacity="1"><g transform="translate(112.252524, 8.05844)"><g></g></g></g><g fill="#242424" fill-opacity="1"><g transform="translate(68.605973, 15.800354)"><g><path d="M -0.03125 0.796875 C 0.132812 0.742188 0.285156 0.648438 0.421875 0.515625 C 0.554688 0.390625 0.65625 0.234375 0.71875 0.046875 C 0.769531 -0.0976562 0.800781 -0.269531 0.8125 -0.46875 C 0.832031 -0.664062 0.84375 -0.96875 0.84375 -1.375 L 0.84375 -3.953125 L 0.28125 -4.03125 L 0.28125 -4.3125 L 2 -4.3125 L 2 -4.03125 L 1.46875 -3.953125 L 1.46875 -1.328125 C 1.46875 -1.015625 1.460938 -0.765625 1.453125 -0.578125 C 1.441406 -0.398438 1.425781 -0.242188 1.40625 -0.109375 C 1.332031 0.203125 1.175781 0.457031 0.9375 0.65625 C 0.707031 0.851562 0.4375 0.984375 0.125 1.046875 Z M -0.03125 0.796875 "></path></g></g></g><g fill="#242424" fill-opacity="1"><g transform="translate(73.849202, 15.800354)"><g><path d="M 2.21875 0.046875 C 1.644531 0.046875 1.222656 -0.101562 0.953125 -0.40625 C 0.679688 -0.707031 0.546875 -1.179688 0.546875 -1.828125 L 0.546875 -3.953125 L 0.140625 -4.03125 L 0.140625 -4.3125 L 1.6875 -4.3125 L 1.6875 -4.03125 L 1.203125 -3.953125 L 1.203125 -1.765625 C 1.203125 -1.234375 1.296875 -0.847656 1.484375 -0.609375 C 1.671875 -0.378906 1.941406 -0.265625 2.296875 -0.265625 C 2.640625 -0.265625 2.898438 -0.390625 3.078125 -0.640625 C 3.253906 -0.890625 3.34375 -1.25 3.34375 -1.71875 L 3.34375 -3.953125 L 2.859375 -4.03125 L 2.859375 -4.3125 L 4.21875 -4.3125 L 4.21875 -4.03125 L 3.796875 -3.953125 L 3.796875 -1.75 C 3.796875 -1.144531 3.648438 -0.691406 3.359375 -0.390625 C 3.066406 -0.0976562 2.6875 0.046875 2.21875 0.046875 Z M 2.21875 0.046875 "></path></g></g></g><g fill="#242424" fill-opacity="1"><g transform="translate(81.176955, 15.800354)"><g><path d="M 0.265625 -0.28125 L 0.75 -0.34375 L 0.75 -3.953125 L 0.296875 -4.03125 L 0.296875 -4.3125 L 1.0625 -4.3125 C 1.164062 -4.3125 1.3125 -4.320312 1.5 -4.34375 C 1.695312 -4.351562 1.847656 -4.359375 1.953125 -4.359375 C 2.523438 -4.359375 2.929688 -4.265625 3.171875 -4.078125 C 3.410156 -3.898438 3.53125 -3.613281 3.53125 -3.21875 C 3.53125 -2.945312 3.453125 -2.695312 3.296875 -2.46875 C 3.148438 -2.238281 2.941406 -2.082031 2.671875 -2 C 2.796875 -1.9375 2.910156 -1.820312 3.015625 -1.65625 C 3.117188 -1.5 3.25 -1.273438 3.40625 -0.984375 C 3.53125 -0.765625 3.625 -0.601562 3.6875 -0.5 C 3.75 -0.40625 3.8125 -0.351562 3.875 -0.34375 L 4.09375 -0.28125 L 4.09375 0 L 3.296875 0 C 3.234375 0 3.160156 -0.0664062 3.078125 -0.203125 C 3.003906 -0.335938 2.90625 -0.539062 2.78125 -0.8125 C 2.632812 -1.125 2.507812 -1.367188 2.40625 -1.546875 C 2.3125 -1.722656 2.210938 -1.835938 2.109375 -1.890625 C 1.691406 -1.890625 1.445312 -1.894531 1.375 -1.90625 L 1.375 -0.34375 L 1.953125 -0.28125 L 1.953125 0 L 0.265625 0 Z M 2.0625 -2.203125 C 2.3125 -2.203125 2.503906 -2.285156 2.640625 -2.453125 C 2.785156 -2.617188 2.859375 -2.859375 2.859375 -3.171875 C 2.859375 -3.460938 2.785156 -3.679688 2.640625 -3.828125 C 2.492188 -3.972656 2.242188 -4.046875 1.890625 -4.046875 C 1.765625 -4.046875 1.640625 -4.039062 1.515625 -4.03125 C 1.441406 -4.019531 1.394531 -4.015625 1.375 -4.015625 L 1.375 -2.21875 C 1.425781 -2.207031 1.546875 -2.203125 1.734375 -2.203125 Z M 2.0625 -2.203125 "></path></g></g></g><g fill="#242424" fill-opacity="1"><g transform="translate(88.295673, 15.800354)"><g><path d="M 0.859375 -3.953125 L 0.3125 -4.03125 L 0.3125 -4.3125 L 2.015625 -4.3125 L 2.015625 -4.03125 L 1.484375 -3.953125 L 1.484375 -0.34375 L 2.015625 -0.28125 L 2.015625 0 L 0.3125 0 L 0.3125 -0.28125 L 0.859375 -0.34375 Z M 0.859375 -3.953125 "></path></g></g></g><g fill="#242424" fill-opacity="1"><g transform="translate(93.66664, 15.800354)"><g><path d="M 0.75 -3.953125 L 0.296875 -4.03125 L 0.296875 -4.3125 L 1.0625 -4.3125 C 1.175781 -4.3125 1.347656 -4.320312 1.578125 -4.34375 C 1.796875 -4.351562 1.960938 -4.359375 2.078125 -4.359375 C 2.796875 -4.359375 3.332031 -4.175781 3.6875 -3.8125 C 4.039062 -3.457031 4.21875 -2.953125 4.21875 -2.296875 C 4.21875 -1.835938 4.125 -1.429688 3.9375 -1.078125 C 3.757812 -0.722656 3.507812 -0.445312 3.1875 -0.25 C 2.863281 -0.0507812 2.488281 0.046875 2.0625 0.046875 C 1.96875 0.046875 1.8125 0.0351562 1.59375 0.015625 C 1.351562 0.00390625 1.175781 0 1.0625 0 L 0.265625 0 L 0.265625 -0.28125 L 0.75 -0.34375 Z M 1.359375 -0.328125 C 1.492188 -0.296875 1.671875 -0.28125 1.890625 -0.28125 L 2.0625 -0.28125 C 2.351562 -0.28125 2.609375 -0.351562 2.828125 -0.5 C 3.054688 -0.644531 3.234375 -0.859375 3.359375 -1.140625 C 3.484375 -1.421875 3.546875 -1.765625 3.546875 -2.171875 C 3.546875 -2.785156 3.410156 -3.25 3.140625 -3.5625 C 2.878906 -3.882812 2.476562 -4.046875 1.9375 -4.046875 C 1.820312 -4.046875 1.691406 -4.039062 1.546875 -4.03125 C 1.472656 -4.019531 1.410156 -4.015625 1.359375 -4.015625 Z M 1.359375 -0.328125 "></path></g></g></g><g fill="#242424" fill-opacity="1"><g transform="translate(101.098911, 15.800354)"><g><path d="M 0.859375 -3.953125 L 0.3125 -4.03125 L 0.3125 -4.3125 L 2.015625 -4.3125 L 2.015625 -4.03125 L 1.484375 -3.953125 L 1.484375 -0.34375 L 2.015625 -0.28125 L 2.015625 0 L 0.3125 0 L 0.3125 -0.28125 L 0.859375 -0.34375 Z M 0.859375 -3.953125 "></path></g></g></g><g fill="#242424" fill-opacity="1"><g transform="translate(106.469877, 15.800354)"><g><path d="M 2.203125 0.0625 C 1.773438 0.0625 1.410156 -0.0234375 1.109375 -0.203125 C 0.804688 -0.390625 0.578125 -0.648438 0.421875 -0.984375 C 0.265625 -1.316406 0.1875 -1.707031 0.1875 -2.15625 C 0.1875 -2.59375 0.273438 -2.976562 0.453125 -3.3125 C 0.640625 -3.644531 0.890625 -3.898438 1.203125 -4.078125 C 1.523438 -4.265625 1.882812 -4.359375 2.28125 -4.359375 C 2.582031 -4.359375 2.941406 -4.3125 3.359375 -4.21875 L 3.546875 -4.1875 L 3.5 -3.140625 L 3.109375 -3.140625 L 2.953125 -3.875 C 2.898438 -3.925781 2.804688 -3.96875 2.671875 -4 C 2.535156 -4.03125 2.375 -4.046875 2.1875 -4.046875 C 1.9375 -4.046875 1.710938 -3.972656 1.515625 -3.828125 C 1.328125 -3.691406 1.175781 -3.484375 1.0625 -3.203125 C 0.957031 -2.929688 0.90625 -2.601562 0.90625 -2.21875 C 0.90625 -1.863281 0.953125 -1.535156 1.046875 -1.234375 C 1.140625 -0.929688 1.285156 -0.691406 1.484375 -0.515625 C 1.679688 -0.335938 1.925781 -0.25 2.21875 -0.25 C 2.425781 -0.25 2.582031 -0.265625 2.6875 -0.296875 C 2.800781 -0.335938 2.894531 -0.390625 2.96875 -0.453125 L 3.21875 -1.03125 L 3.59375 -0.984375 L 3.453125 -0.15625 C 3.367188 -0.15625 3.25 -0.128906 3.09375 -0.078125 C 2.945312 -0.0351562 2.804688 -0.00390625 2.671875 0.015625 C 2.546875 0.046875 2.390625 0.0625 2.203125 0.0625 Z M 2.203125 0.0625 "></path></g></g></g><g fill="#242424" fill-opacity="1"><g transform="translate(113.288307, 15.800354)"><g></g></g></g><g fill="#242424" fill-opacity="1"><g transform="translate(68.393646, 23.080647)"><g><path d="M 0.859375 -3.953125 L 0.3125 -4.015625 L 0.3125 -4.3125 L 2.015625 -4.3125 L 2.015625 -4.015625 L 1.484375 -3.953125 L 1.484375 -0.34375 L 2.015625 -0.28125 L 2.015625 0 L 0.3125 0 L 0.3125 -0.28125 L 0.859375 -0.34375 Z M 0.859375 -3.953125 "></path></g></g></g><g fill="#242424" fill-opacity="1"><g transform="translate(72.471014, 23.080647)"><g><path d="M 0.75 -3.953125 L 0.296875 -4.015625 L 0.296875 -4.3125 L 1.375 -4.3125 L 3.296875 -1.484375 L 3.625 -0.859375 L 3.625 -3.953125 L 3.125 -4.015625 L 3.125 -4.3125 L 4.484375 -4.3125 L 4.484375 -4.015625 L 4.015625 -3.953125 L 4.015625 0 L 3.5625 0 L 1.59375 -2.890625 L 1.140625 -3.65625 L 1.140625 -0.34375 L 1.703125 -0.28125 L 1.703125 0 L 0.296875 0 L 0.296875 -0.28125 L 0.75 -0.34375 Z M 0.75 -3.953125 "></path></g></g></g><g fill="#242424" fill-opacity="1"><g transform="translate(78.84325, 23.080647)"><g><path d="M 1.6875 -4 L 0.6875 -3.96875 L 0.484375 -2.75 L 0.09375 -2.75 L 0.203125 -4.3125 L 3.8125 -4.3125 L 3.875 -2.75 L 3.515625 -2.75 L 3.328125 -3.96875 L 2.3125 -4 L 2.3125 -0.34375 L 3.140625 -0.28125 L 3.140625 0 L 0.921875 0 L 0.921875 -0.28125 L 1.6875 -0.34375 Z M 1.6875 -4 "></path></g></g></g><g fill="#242424" fill-opacity="1"><g transform="translate(84.595413, 23.080647)"><g><path d="M 0.75 -3.953125 L 0.265625 -4.015625 L 0.265625 -4.3125 L 3.21875 -4.3125 L 3.296875 -3.40625 L 2.96875 -3.40625 L 2.8125 -3.96875 L 1.375 -4 L 1.375 -2.375 L 2.34375 -2.390625 L 2.421875 -2.875 L 2.734375 -2.875 L 2.734375 -1.53125 L 2.421875 -1.53125 L 2.34375 -2.03125 L 1.375 -2.046875 L 1.375 -0.328125 L 3 -0.375 L 3.3125 -1.109375 L 3.65625 -1.015625 L 3.484375 0 L 0.265625 0 L 0.265625 -0.28125 L 0.75 -0.34375 Z M 0.75 -3.953125 "></path></g></g></g><g fill="#242424" fill-opacity="1"><g transform="translate(90.109973, 23.080647)"><g><path d="M 0.765625 -3.953125 L 0.296875 -4.015625 L 0.296875 -4.3125 L 1.953125 -4.3125 L 1.953125 -4.015625 L 1.375 -3.953125 L 1.375 -0.34375 L 2.875 -0.390625 L 3.21875 -1.375 L 3.578125 -1.3125 L 3.375 0 L 0.28125 0 L 0.28125 -0.28125 L 0.765625 -0.34375 Z M 0.765625 -3.953125 "></path></g></g></g><g fill="#242424" fill-opacity="1"><g transform="translate(95.526012, 23.080647)"><g><path d="M 0.859375 -3.953125 L 0.3125 -4.015625 L 0.3125 -4.3125 L 2.015625 -4.3125 L 2.015625 -4.015625 L 1.484375 -3.953125 L 1.484375 -0.34375 L 2.015625 -0.28125 L 2.015625 0 L 0.3125 0 L 0.3125 -0.28125 L 0.859375 -0.34375 Z M 0.859375 -3.953125 "></path></g></g></g><g fill="#242424" fill-opacity="1"><g transform="translate(99.603379, 23.080647)"><g><path d="M 2.265625 0.0625 C 1.847656 0.0625 1.484375 -0.03125 1.171875 -0.21875 C 0.867188 -0.40625 0.640625 -0.660156 0.484375 -0.984375 C 0.328125 -1.304688 0.25 -1.675781 0.25 -2.09375 C 0.25 -2.570312 0.34375 -2.976562 0.53125 -3.3125 C 0.71875 -3.65625 0.976562 -3.914062 1.3125 -4.09375 C 1.644531 -4.269531 2.023438 -4.359375 2.453125 -4.359375 C 2.835938 -4.359375 3.285156 -4.296875 3.796875 -4.171875 L 3.75 -3.171875 L 3.328125 -3.171875 L 3.1875 -3.859375 C 3.132812 -3.910156 3.039062 -3.953125 2.90625 -3.984375 C 2.78125 -4.023438 2.613281 -4.046875 2.40625 -4.046875 C 2.125 -4.046875 1.875 -3.972656 1.65625 -3.828125 C 1.4375 -3.691406 1.265625 -3.488281 1.140625 -3.21875 C 1.023438 -2.945312 0.96875 -2.613281 0.96875 -2.21875 C 0.96875 -1.863281 1.015625 -1.535156 1.109375 -1.234375 C 1.210938 -0.929688 1.363281 -0.691406 1.5625 -0.515625 C 1.757812 -0.335938 2.007812 -0.25 2.3125 -0.25 C 2.488281 -0.25 2.660156 -0.269531 2.828125 -0.3125 C 2.992188 -0.351562 3.125 -0.414062 3.21875 -0.5 L 3.21875 -1.78125 L 2.484375 -1.84375 L 2.484375 -2.1875 L 4.171875 -2.1875 L 4.171875 -1.84375 L 3.84375 -1.796875 L 3.84375 -0.234375 C 3.757812 -0.222656 3.617188 -0.191406 3.421875 -0.140625 C 3.222656 -0.078125 3.03125 -0.03125 2.84375 0 C 2.664062 0.0390625 2.472656 0.0625 2.265625 0.0625 Z M 2.265625 0.0625 "></path></g></g></g><g fill="#242424" fill-opacity="1"><g transform="translate(105.63371, 23.080647)"><g><path d="M 0.75 -3.953125 L 0.265625 -4.015625 L 0.265625 -4.3125 L 3.21875 -4.3125 L 3.296875 -3.40625 L 2.96875 -3.40625 L 2.8125 -3.96875 L 1.375 -4 L 1.375 -2.375 L 2.34375 -2.390625 L 2.421875 -2.875 L 2.734375 -2.875 L 2.734375 -1.53125 L 2.421875 -1.53125 L 2.34375 -2.03125 L 1.375 -2.046875 L 1.375 -0.328125 L 3 -0.375 L 3.3125 -1.109375 L 3.65625 -1.015625 L 3.484375 0 L 0.265625 0 L 0.265625 -0.28125 L 0.75 -0.34375 Z M 0.75 -3.953125 "></path></g></g></g><g fill="#242424" fill-opacity="1"><g transform="translate(111.148271, 23.080647)"><g><path d="M 0.75 -3.953125 L 0.296875 -4.015625 L 0.296875 -4.3125 L 1.375 -4.3125 L 3.296875 -1.484375 L 3.625 -0.859375 L 3.625 -3.953125 L 3.125 -4.015625 L 3.125 -4.3125 L 4.484375 -4.3125 L 4.484375 -4.015625 L 4.015625 -3.953125 L 4.015625 0 L 3.5625 0 L 1.59375 -2.890625 L 1.140625 -3.65625 L 1.140625 -0.34375 L 1.703125 -0.28125 L 1.703125 0 L 0.296875 0 L 0.296875 -0.28125 L 0.75 -0.34375 Z M 0.75 -3.953125 "></path></g></g></g><g fill="#242424" fill-opacity="1"><g transform="translate(117.520508, 23.080647)"><g><path d="M 1.6875 -4 L 0.6875 -3.96875 L 0.484375 -2.75 L 0.09375 -2.75 L 0.203125 -4.3125 L 3.8125 -4.3125 L 3.875 -2.75 L 3.515625 -2.75 L 3.328125 -3.96875 L 2.3125 -4 L 2.3125 -0.34375 L 3.140625 -0.28125 L 3.140625 0 L 0.921875 0 L 0.921875 -0.28125 L 1.6875 -0.34375 Z M 1.6875 -4 "></path></g></g></g></svg>