<?xml version="1.0" standalone="no"?>
<!DOCTYPE svg PUBLIC "-//W3C//DTD SVG 20010904//EN"
 "http://www.w3.org/TR/2001/REC-SVG-20010904/DTD/svg10.dtd">
<svg version="1.0" xmlns="http://www.w3.org/2000/svg"
 width="500.000000pt" height="500.000000pt" viewBox="0 0 500.000000 500.000000"
 preserveAspectRatio="xMidYMid meet">
<metadata>
Created by potrace 1.14, written by Peter Selinger 2001-2017
</metadata>
<g transform="translate(0.000000,500.000000) scale(0.100000,-0.100000)"
fill="#000000" stroke="none">
<path d="M3810 3474 c-131 -22 -135 -24 -240 -70 -85 -38 -194 -145 -235 -229
-63 -132 -70 -168 -70 -360 0 -192 7 -227 71 -360 30 -64 170 -215 199 -215 8
0 15 -3 15 -8 0 -8 73 -42 90 -42 6 0 18 -4 28 -9 82 -42 336 -43 457 -2 54
19 160 79 201 115 77 67 174 220 174 274 0 10 4 22 9 27 10 12 31 163 31 228
0 61 -18 186 -31 209 -5 10 -9 25 -9 34 0 31 -70 159 -115 211 -53 61 -122
112 -185 137 -25 10 -54 22 -65 26 -64 26 -258 46 -325 34z m205 -173 c28 -5
73 -21 100 -36 52 -28 155 -129 155 -152 0 -7 4 -13 8 -13 5 0 17 -28 26 -62
10 -35 22 -77 27 -94 12 -41 12 -251 -1 -259 -5 -3 -10 -18 -10 -33 0 -34 -27
-105 -62 -163 -54 -89 -143 -149 -249 -168 -264 -46 -460 62 -527 289 -6 19
-16 53 -22 75 -17 61 -5 275 19 340 24 64 68 138 100 172 48 48 130 90 200
103 30 6 57 13 60 16 7 7 106 -1 176 -15z"/>
<path d="M1874 3449 c-3 -6 -2 -21 4 -32 5 -12 16 -38 23 -57 6 -19 23 -59 36
-88 12 -29 23 -55 23 -58 0 -3 7 -21 15 -40 22 -49 40 -94 55 -134 7 -19 17
-39 22 -44 4 -6 8 -16 8 -23 0 -7 11 -36 24 -65 13 -29 31 -73 41 -98 10 -25
26 -64 36 -87 11 -24 19 -46 19 -49 0 -3 7 -22 16 -42 9 -21 23 -53 31 -72 28
-69 31 -75 47 -112 9 -20 16 -39 16 -42 0 -3 9 -28 21 -54 44 -101 49 -113 49
-127 0 -8 5 -15 10 -15 6 0 10 -9 10 -20 0 -19 7 -20 105 -20 80 0 105 3 105
13 0 7 11 37 25 65 14 29 25 56 25 62 0 6 4 18 9 28 5 9 17 35 26 57 29 71 33
79 49 117 9 20 16 39 16 42 0 3 8 25 19 49 10 23 26 62 36 87 10 25 28 69 41
98 13 29 24 58 24 65 0 7 4 17 8 23 5 5 15 25 22 44 15 40 33 85 55 134 8 19
15 37 15 40 0 3 8 25 19 49 10 23 26 62 36 87 10 25 28 69 41 98 13 29 24 58
24 65 0 7 5 18 11 24 7 7 9 19 6 27 -5 13 -24 16 -97 16 l-90 0 -22 -47 c-11
-27 -24 -57 -28 -68 -5 -11 -15 -36 -24 -57 -9 -20 -16 -42 -16 -50 0 -8 -4
-18 -9 -24 -4 -5 -16 -31 -26 -59 -19 -55 -26 -73 -48 -125 -8 -19 -29 -73
-47 -120 -17 -47 -38 -98 -45 -115 -7 -16 -20 -50 -30 -75 -9 -25 -21 -55 -26
-67 -5 -13 -13 -33 -19 -45 -5 -13 -17 -45 -25 -73 -9 -27 -20 -59 -25 -70 -5
-11 -13 -35 -17 -53 -11 -46 -25 -44 -38 5 -5 23 -13 45 -17 49 -5 4 -8 18 -8
30 0 13 -4 26 -10 29 -5 3 -10 13 -10 22 0 8 -7 31 -16 51 -9 21 -20 46 -24
57 -34 87 -44 114 -55 140 -7 17 -28 68 -45 115 -37 96 -57 147 -71 172 -5 10
-9 23 -9 29 0 6 -7 27 -16 47 -9 21 -20 46 -24 57 -33 87 -44 114 -55 140 -7
17 -20 47 -29 68 l-15 37 -90 0 c-54 0 -92 -4 -97 -11z"/>
<path d="M1174 3412 c-6 -4 -20 -32 -30 -62 -11 -30 -22 -56 -26 -58 -5 -2 -8
-11 -8 -21 0 -9 -4 -21 -8 -26 -5 -6 -21 -44 -37 -85 -15 -41 -34 -91 -42
-110 -9 -19 -22 -51 -30 -70 -28 -67 -31 -75 -52 -123 -12 -27 -24 -62 -28
-78 -3 -16 -9 -29 -14 -29 -5 0 -9 -9 -9 -19 0 -11 -4 -22 -9 -26 -5 -3 -12
-18 -16 -35 -3 -16 -17 -52 -31 -80 -13 -27 -24 -54 -24 -60 0 -6 -4 -18 -9
-28 -5 -9 -17 -35 -26 -57 -29 -70 -33 -79 -48 -115 -9 -19 -21 -54 -29 -77
-7 -24 -16 -43 -20 -43 -5 0 -8 -8 -8 -18 0 -10 -4 -22 -10 -28 -5 -5 -6 -15
0 -24 7 -11 30 -15 94 -15 98 0 101 2 131 94 10 31 22 61 25 66 4 6 15 33 25
60 10 28 23 64 30 80 7 17 28 68 45 115 18 47 39 101 47 120 8 19 19 44 23 55
14 36 42 110 50 130 37 98 61 156 70 175 4 9 11 31 15 50 4 19 10 40 14 45 4
6 13 29 21 53 7 23 16 42 19 42 3 0 19 -42 35 -93 16 -50 33 -99 37 -107 4 -8
15 -35 24 -60 10 -25 24 -59 31 -77 8 -17 14 -34 14 -37 0 -3 8 -25 19 -49 10
-23 24 -58 31 -77 7 -19 19 -48 25 -65 7 -16 18 -46 25 -65 7 -19 20 -51 28
-70 8 -19 18 -44 22 -55 30 -77 44 -114 55 -140 7 -16 18 -46 25 -65 7 -19 16
-39 20 -45 4 -5 10 -23 14 -38 8 -34 39 -47 109 -47 83 0 100 8 93 41 -3 16
-15 48 -26 71 -11 23 -20 45 -20 50 0 4 -12 33 -26 65 -29 65 -45 101 -64 153
-7 19 -17 39 -22 45 -4 5 -8 16 -8 25 0 8 -7 28 -15 44 -8 15 -15 35 -15 42 0
8 -4 14 -9 14 -5 0 -11 13 -14 30 -4 16 -16 49 -27 72 -11 23 -20 45 -20 50 0
4 -11 31 -24 60 -13 29 -36 85 -52 123 -15 39 -31 74 -36 80 -4 5 -8 16 -8 25
0 8 -7 28 -15 44 -8 15 -15 35 -15 42 0 8 -4 14 -10 14 -5 0 -10 7 -10 16 0 9
-7 31 -15 50 -8 19 -22 49 -30 68 -8 19 -15 39 -15 45 0 6 -9 15 -19 21 -22
11 -170 14 -187 2z"/>
<path d="M720 1490 l0 -320 46 0 45 0 -3 266 c-3 257 -3 264 13 212 9 -29 44
-125 79 -213 34 -88 71 -184 82 -213 19 -52 21 -53 55 -50 l36 3 93 245 93
245 1 -247 0 -248 45 0 45 0 0 320 0 320 -59 0 -59 0 -40 -103 c-22 -56 -66
-173 -98 -260 l-58 -158 -23 68 c-13 37 -56 154 -97 258 l-73 190 -62 3 -61 3
0 -321z"/>
<path d="M1666 1778 c-18 -42 -237 -579 -243 -595 -4 -9 9 -13 44 -13 l50 0
34 90 33 91 145 -3 145 -3 34 -87 34 -88 48 0 48 0 -127 318 -127 317 -52 3
c-51 3 -53 2 -66 -30z m120 -205 c30 -76 54 -139 54 -140 0 -2 -49 -3 -110 -3
-60 0 -110 2 -110 4 0 2 20 55 44 118 25 62 48 126 51 141 4 15 10 26 13 23 3
-3 29 -68 58 -143z"/>
<path d="M2110 1490 l0 -320 40 0 40 0 2 258 3 257 160 -255 160 -255 58 -3
57 -3 0 321 0 320 -40 0 -40 0 -2 -264 -3 -264 -165 264 -165 263 -52 1 -53 0
0 -320z"/>
<path d="M2770 1589 c0 -243 7 -289 52 -343 52 -64 98 -81 213 -81 83 0 107 4
140 22 51 27 79 57 104 113 19 41 21 65 21 278 l0 232 -44 0 -45 0 -3 -232
c-3 -261 -8 -282 -78 -319 -49 -26 -154 -26 -197 1 -63 38 -68 59 -71 318 l-4
232 -44 0 -44 0 0 -221z"/>
<path d="M3616 1778 c-18 -42 -237 -579 -243 -595 -4 -9 9 -13 44 -13 l50 0
34 90 33 91 145 -3 145 -3 34 -87 34 -88 48 0 48 0 -127 318 -127 317 -52 3
c-51 3 -53 2 -66 -30z m120 -205 c30 -76 54 -139 54 -140 0 -2 -49 -3 -110 -3
-60 0 -110 2 -110 4 0 2 20 55 44 118 25 62 48 126 51 141 4 15 10 26 13 23 3
-3 29 -68 58 -143z"/>
<path d="M4060 1490 l0 -320 205 0 205 0 0 35 0 35 -160 0 -160 0 0 285 0 285
-45 0 -45 0 0 -320z"/>
</g>
</svg>
